<?xml version="1.0" encoding="utf-8"?>
<!-- Generator: Adobe Illustrator 19.1.0, SVG Export Plug-In . SVG Version: 6.00 Build 0)  -->
<svg version="1.1" id="Layer_1" xmlns="http://www.w3.org/2000/svg" xmlns:xlink="http://www.w3.org/1999/xlink" x="0px" y="0px"
	 viewBox="0 0 165.7 43" style="enable-background:new 0 0 165.7 43;" xml:space="preserve">
<style type="text/css">
	.st0{fill:#6DB75E;}
	.st1{fill:#8A9099;}
	.st2{fill:#C6C7D0;}
</style>
<g>
	<path class="st0" d="M36.4,17.6C36.1,7.7,27.9-0.1,17.9,0C8,0.2,0,8.2,0,18c0,2.4,0.6,4.7,1.5,6.8c0.9,1.9,2,3.7,3.5,5.2l2.2,2.3
		l10.6,10.5c0.3,0.3,0.7,0.3,1,0l11.5-11.4l1.4-1.4c0,0,0,0,0,0C34.7,26.7,36.5,22.4,36.4,17.6z M29.3,27.7c0,0.1-0.1,0.1-0.1,0.2
		L28,29l-7.5,7.4c-1.2,1.2-3.2,1.2-4.5,0l-6.8-6.7l-1.8-1.9c-1.2-1.2-2.1-2.7-2.8-4.2c-0.8-1.7-1.2-3.5-1.2-5.5
		c0-8,6.5-14.5,14.5-14.6c8.1-0.1,14.8,6.3,15,14.3C33,21.6,31.6,25.1,29.3,27.7z"/>
	<path class="st0" d="M25.6,10.5c-2-1.9-4.6-3-7.4-3h0c-0.1,0-0.1,0-0.2,0c-2.8,0-5.4,1.2-7.4,3.1c-2,2-3.1,4.6-3.1,7.4
		c0,1.3,0.3,2.7,0.9,4c0.5,1.1,1.2,2.1,2,3l0.7,0.7l0,0l1.4,1.4c0.1,0.1,0.3,0.1,0.5,0l0.2-0.2l5.2-5.3c0,0,0,0,0,0c0,0,0,0,0.1-0.1
		l1.2-1.2c0,0,0-0.1,0.1-0.1c0,0,0,0,0-0.1l0.1-0.1c0.1-0.1,0.1-0.3,0-0.5l-0.1-0.1c0,0,0,0,0,0l-0.2-0.2L18.1,18l0,0l-0.7-0.6
		c-0.4-0.4-1-0.4-1.3,0l-0.9,0.9c-0.2,0.2-0.2,0.6,0,0.9l0.7,0.6c0.1,0.1,0.1,0.3,0,0.5L13,23.1c-0.1,0.1-0.4,0.1-0.5,0c0,0,0,0,0,0
		c-0.6-0.7-1.1-1.4-1.5-2.2c-0.4-0.9-0.6-1.9-0.6-2.8c0-2,0.8-3.9,2.2-5.4c1.4-1.4,3.4-2.3,5.4-2.3c0,0,0.1,0,0.1,0
		c2,0,4,0.8,5.4,2.2c1.5,1.4,2.3,3.3,2.3,5.3c0,1.9-0.6,3.8-1.9,5.2c0,0,0,0,0,0l-0.7,0.7l-5,5l0,0l-1.8,1.8c-0.1,0.1-0.1,0.3,0,0.5
		l0.2,0.2c0,0,0,0,0,0l2.6,2.6c0.1,0.1,0.4,0.1,0.5,0l1.6-1.6c0.1-0.1,0.1-0.4,0-0.5l-1.1-1.1l5-4.9L26,25l0,0
		c1.8-2,2.8-4.6,2.7-7.2C28.7,15,27.6,12.4,25.6,10.5z"/>
</g>
<path class="st1" d="M51.2,21.3L51.2,21.3c0-6.4,5-11.7,11.8-11.7c3.4,0,5.6,0.8,7.7,2.2c0.5,0.4,1,1,1,2c0,1.3-1.1,2.4-2.4,2.4
	c-0.7,0-1.2-0.3-1.5-0.5c-1.3-1-2.8-1.5-4.9-1.5c-3.6,0-6.4,3.2-6.4,7v0.1c0,4.1,2.8,7.1,6.8,7.1c1.8,0,3.4-0.4,4.6-1.3v-3.2h-3.3
	c-1.2,0-2.1-0.9-2.1-2.1c0-1.2,1-2.1,2.1-2.1h5.6c1.4,0,2.5,1.1,2.5,2.5v5.4c0,1.4-0.5,2.4-1.7,3.1c-1.8,1.1-4.5,2.2-7.8,2.2
	C56,32.9,51.2,28,51.2,21.3z"/>
<path class="st1" d="M80.4,23.8L73.2,14c-0.4-0.5-0.6-1.1-0.6-1.8c0-1.3,1.1-2.4,2.5-2.4c1.1,0,1.8,0.6,2.4,1.5l5.4,7.8l5.5-7.9
	c0.6-0.9,1.3-1.5,2.4-1.5c1.5,0,2.4,1.1,2.4,2.4c0,0.7-0.3,1.3-0.6,1.7l-7.2,9.8v6.5c0,1.4-1.1,2.5-2.5,2.5c-1.4,0-2.5-1.1-2.5-2.5
	V23.8z"/>
<path class="st1" d="M94.4,12.4c0-1.4,1.1-2.5,2.5-2.5h0.5c1.1,0,1.8,0.5,2.2,1.3l6,9.7l6-9.7c0.5-0.8,1.2-1.2,2.2-1.2h0.5
	c1.4,0,2.5,1.1,2.5,2.5v17.8c0,1.4-1.1,2.5-2.5,2.5c-1.3,0-2.4-1.1-2.4-2.5V19l-4.3,6.7c-0.5,0.8-1.2,1.2-2.1,1.2
	c-0.9,0-1.5-0.5-2.1-1.2l-4.3-6.6v11.1c0,1.3-1.1,2.4-2.4,2.4c-1.3,0-2.4-1.1-2.4-2.4V12.4z"/>
<path class="st2" d="M120.4,11.2c0-0.7,0.6-1.3,1.2-1.3c0.7,0,1.3,0.6,1.3,1.3V20h12.9v-8.8c0-0.7,0.6-1.3,1.3-1.3
	c0.7,0,1.2,0.6,1.2,1.3v20.2c0,0.7-0.6,1.3-1.2,1.3c-0.7,0-1.3-0.6-1.3-1.3v-9h-12.9v9c0,0.7-0.6,1.3-1.3,1.3
	c-0.7,0-1.2-0.6-1.2-1.3V11.2z"/>
<path class="st2" d="M142.7,11.2c0-0.7,0.6-1.3,1.2-1.3c0.7,0,1.3,0.6,1.3,1.3v20.2c0,0.7-0.6,1.3-1.3,1.3c-0.7,0-1.2-0.6-1.2-1.3
	V11.2z"/>
<path class="st2" d="M155.5,12.4H149c-0.6,0-1.2-0.5-1.2-1.2c0-0.6,0.5-1.2,1.2-1.2h15.6c0.6,0,1.2,0.5,1.2,1.2
	c0,0.6-0.5,1.2-1.2,1.2h-6.5v19c0,0.7-0.6,1.3-1.3,1.3s-1.3-0.6-1.3-1.3V12.4z"/>
</svg>
